ffmpeg started on 2025-06-04 at 19:26:25
Report written to "D:\Convert\FFMetrics\reports\ssim_report-6.txt"
Log level: 32
Command line:
ffmpeg -hide_banner -nostdin -i "G:\\\xc0\xed\xe8\xec\xe5\\\xce\xed\xe3\xee\xe8\xed\xe3\xe8\\!_36_\xce\xf1\xe5\xed\xfc_2024\\DreamCast\\\xc2\xfb \xef\xf0\xe0\xe2\xe4\xe0 \xe6\xe5\xed\xe8\xf2\xe5\xf1\xfc\\[DC] Kekkon Surutte Hontou Desuka - 04_Telegram_HEVC.mkv" -i "G:\\\xc0\xed\xe8\xec\xe5\\\xce\xed\xe3\xee\xe8\xed\xe3\xe8\\!_36_\xce\xf1\xe5\xed\xfc_2024\\DreamCast\\\xc2\xfb \xef\xf0\xe0\xe2\xe4\xe0 \xe6\xe5\xed\xe8\xf2\xe5\xf1\xfc\\[DC] Kekkon Surutte Hontou Desuka - 04_Telegram.mp4" -lavfi "[0:v]settb=AVTB,setpts=PTS-STARTPTS,format=pix_fmts=yuv420p10,fps=24000/1001,scale=1920:1080:flags=bicubic[main];[1:v]settb=AVTB,setpts=PTS-STARTPTS,format=pix_fmts=yuv420p,fps=24000/1001,scale=1920:1080:flags=bicubic[ref];[main][ref]ssim=eof_action=endall:stats_file='D\\:/Convert/FFMetrics/logs/ssim_logfile-6.txt'" -f null -
Input #0, matroska,webm, from 'G:\Аниме\Онгоинги\!_36_Осень_2024\DreamCast\Вы правда женитесь\[DC] Kekkon Surutte Hontou Desuka - 04_Telegram_HEVC.mkv':
  Metadata:
    COMPATIBLE_BRANDS: isomiso2avc1mp41
    MAJOR_BRAND     : isom
    MINOR_VERSION   : 512
    ENCODER         : Lavf61.7.100
  Duration: 00:23:47.71, start: -0.021000, bitrate: 1186 kb/s
  Stream #0:0: Video: hevc (Main 10), yuv420p10le(tv, bt709, progressive), 1920x1080 [SAR 1:1 DAR 16:9], 23.98 fps, 23.98 tbr, 1k tbn (default)
      Metadata:
        HANDLER_NAME    : VideoHandler
        VENDOR_ID       : [0][0][0][0]
        ENCODER         : Lavc61.19.100 libx265
        BPS             : 989769
        DURATION        : 00:23:46.549708333
        NUMBER_OF_FRAMES: 34203
        NUMBER_OF_BYTES : 176494323
        _STATISTICS_WRITING_APP: mkvpropedit v66.0.0 ('Josie') 64-bit
        _STATISTICS_WRITING_DATE_UTC: 2025-05-30 07:46:45
        _STATISTICS_TAGS: BPS DURATION NUMBER_OF_FRAMES NUMBER_OF_BYTES
  Stream #0:1: Audio: aac (LC), 48000 Hz, stereo, fltp (default)
      Metadata:
        HANDLER_NAME    : SoundHandler
        VENDOR_ID       : [0][0][0][0]
        ENCODER         : Lavc61.19.100 aac
        BPS             : 193071
        DURATION        : 00:23:47.712000000
        NUMBER_OF_FRAMES: 66925
        NUMBER_OF_BYTES : 34456378
        _STATISTICS_WRITING_APP: mkvpropedit v66.0.0 ('Josie') 64-bit
        _STATISTICS_WRITING_DATE_UTC: 2025-05-30 07:46:45
        _STATISTICS_TAGS: BPS DURATION NUMBER_OF_FRAMES NUMBER_OF_BYTES
Input #1, mov,mp4,m4a,3gp,3g2,mj2, from 'G:\Аниме\Онгоинги\!_36_Осень_2024\DreamCast\Вы правда женитесь\[DC] Kekkon Surutte Hontou Desuka - 04_Telegram.mp4':
  Metadata:
    major_brand     : isom
    minor_version   : 512
    compatible_brands: isomiso2avc1mp41
    encoder         : Lavf61.1.100
  Duration: 00:23:47.68, start: 0.000000, bitrate: 3626 kb/s
  Stream #1:0[0x1](und): Video: h264 (High) (avc1 / 0x31637661), yuv420p(tv, bt709, progressive), 1920x1080 [SAR 1:1 DAR 16:9], 3481 kb/s, 23.98 fps, 23.98 tbr, 24k tbn (default)
      Metadata:
        handler_name    : VideoHandler
        vendor_id       : [0][0][0][0]
        encoder         : Lavc61.3.100 h264_qsv
  Stream #1:1[0x2](und): Audio: aac (HE-AACv2) (mp4a / 0x6134706D), 48000 Hz, stereo, fltp, 144 kb/s (default)
      Metadata:
        handler_name    : SoundHandler
        vendor_id       : [0][0][0][0]
Stream mapping:
  Stream #0:0 (hevc) -> settb:default
  Stream #1:0 (h264) -> settb:default
  ssim:default -> Stream #0:0 (wrapped_avframe)
  Stream #0:1 -> #0:1 (aac (native) -> pcm_s16le (native))
Output #0, null, to 'pipe:':
  Metadata:
    COMPATIBLE_BRANDS: isomiso2avc1mp41
    MAJOR_BRAND     : isom
    MINOR_VERSION   : 512
    encoder         : Lavf61.7.100
  Stream #0:0: Video: wrapped_avframe, yuv420p10le(tv, bt709, progressive), 1920x1080 [SAR 1:1 DAR 16:9], q=2-31, 200 kb/s, 23.98 fps, 23.98 tbn
      Metadata:
        encoder         : Lavc61.19.100 wrapped_avframe
  Stream #0:1: Audio: pcm_s16le, 48000 Hz, stereo, s16, 1536 kb/s (default)
      Metadata:
        HANDLER_NAME    : SoundHandler
        VENDOR_ID       : [0][0][0][0]
        _STATISTICS_TAGS: BPS DURATION NUMBER_OF_FRAMES NUMBER_OF_BYTES
        BPS             : 193071
        DURATION        : 00:23:47.712000000
        NUMBER_OF_FRAMES: 66925
        NUMBER_OF_BYTES : 34456378
        _STATISTICS_WRITING_APP: mkvpropedit v66.0.0 ('Josie') 64-bit
        _STATISTICS_WRITING_DATE_UTC: 2025-05-30 07:46:45
        encoder         : Lavc61.19.100 pcm_s16le
frame=  178 fps=0.0 q=-0.0 size=N/A time=00:00:07.42 bitrate=N/A speed=14.5x    frame=  416 fps=403 q=-0.0 size=N/A time=00:00:17.35 bitrate=N/A speed=16.8x    frame=  647 fps=420 q=-0.0 size=N/A time=00:00:26.98 bitrate=N/A speed=17.5x    frame=  886 fps=429 q=-0.0 size=N/A time=00:00:36.95 bitrate=N/A speed=17.9x    frame= 1138 fps=443 q=-0.0 size=N/A time=00:00:47.46 bitrate=N/A speed=18.5x    frame= 1397 fps=452 q=-0.0 size=N/A time=00:00:58.26 bitrate=N/A speed=18.8x    frame= 1646 fps=457 q=-0.0 size=N/A time=00:01:08.65 bitrate=N/A speed=19.1x    frame= 1923 fps=467 q=-0.0 size=N/A time=00:01:20.20 bitrate=N/A speed=19.5x    frame= 2200 fps=474 q=-0.0 size=N/A time=00:01:31.75 bitrate=N/A speed=19.8x    frame= 2439 fps=473 q=-0.0 size=N/A time=00:01:41.72 bitrate=N/A speed=19.7x    frame= 2670 fps=472 q=-0.0 size=N/A time=00:01:51.36 bitrate=N/A speed=19.7x    frame= 2890 fps=467 q=-0.0 size=N/A time=00:02:00.53 bitrate=N/A speed=19.5x    frame= 3101 fps=463 q=-0.0 size=N/A time=00:02:09.33 bitrate=N/A speed=19.3x    frame= 3331 fps=461 q=-0.0 size=N/A time=00:02:18.93 bitrate=N/A speed=19.2x    frame= 3520 fps=455 q=-0.0 size=N/A time=00:02:26.81 bitrate=N/A speed=  19x    frame= 3716 fps=450 q=-0.0 size=N/A time=00:02:34.98 bitrate=N/A speed=18.8x    frame= 3919 fps=447 q=-0.0 size=N/A time=00:02:43.45 bitrate=N/A speed=18.7x    frame= 4134 fps=446 q=-0.0 size=N/A time=00:02:52.42 bitrate=N/A speed=18.6x    frame= 4363 fps=445 q=-0.0 size=N/A time=00:03:01.97 bitrate=N/A speed=18.6x    frame= 4597 fps=446 q=-0.0 size=N/A time=00:03:11.73 bitrate=N/A speed=18.6x    frame= 4817 fps=445 q=-0.0 size=N/A time=00:03:20.90 bitrate=N/A speed=18.5x    frame= 5049 fps=445 q=-0.0 size=N/A time=00:03:30.58 bitrate=N/A speed=18.5x    frame= 5306 fps=447 q=-0.0 size=N/A time=00:03:41.30 bitrate=N/A speed=18.6x    frame= 5562 fps=449 q=-0.0 size=N/A time=00:03:51.98 bitrate=N/A speed=18.7x    frame= 5805 fps=450 q=-0.0 size=N/A time=00:04:02.11 bitrate=N/A speed=18.8x    frame= 6029 fps=450 q=-0.0 size=N/A time=00:04:11.45 bitrate=N/A speed=18.7x    frame= 6257 fps=449 q=-0.0 size=N/A time=00:04:20.96 bitrate=N/A speed=18.7x    frame= 6488 fps=449 q=-0.0 size=N/A time=00:04:30.60 bitrate=N/A speed=18.7x    frame= 6724 fps=449 q=-0.0 size=N/A time=00:04:40.44 bitrate=N/A speed=18.7x    frame= 6954 fps=449 q=-0.0 size=N/A time=00:04:50.03 bitrate=N/A speed=18.7x    frame= 7218 fps=451 q=-0.0 size=N/A time=00:05:01.05 bitrate=N/A speed=18.8x    frame= 7468 fps=452 q=-0.0 size=N/A time=00:05:11.47 bitrate=N/A speed=18.9x    frame= 7719 fps=453 q=-0.0 size=N/A time=00:05:21.94 bitrate=N/A speed=18.9x    frame= 7951 fps=453 q=-0.0 size=N/A time=00:05:31.62 bitrate=N/A speed=18.9x    frame= 8193 fps=454 q=-0.0 size=N/A time=00:05:41.71 bitrate=N/A speed=18.9x    frame= 8425 fps=454 q=-0.0 size=N/A time=00:05:51.39 bitrate=N/A speed=18.9x    frame= 8704 fps=456 q=-0.0 size=N/A time=00:06:03.02 bitrate=N/A speed=  19x    frame= 8954 fps=457 q=-0.0 size=N/A time=00:06:13.45 bitrate=N/A speed=19.1x    frame= 9188 fps=457 q=-0.0 size=N/A time=00:06:23.21 bitrate=N/A speed=19.1x    frame= 9442 fps=457 q=-0.0 size=N/A time=00:06:33.81 bitrate=N/A speed=19.1x    frame= 9671 fps=457 q=-0.0 size=N/A time=00:06:43.36 bitrate=N/A speed=19.1x    frame= 9909 fps=457 q=-0.0 size=N/A time=00:06:53.28 bitrate=N/A speed=19.1x    frame=10170 fps=459 q=-0.0 size=N/A time=00:07:04.17 bitrate=N/A speed=19.1x    frame=10433 fps=460 q=-0.0 size=N/A time=00:07:15.14 bitrate=N/A speed=19.2x    frame=10704 fps=461 q=-0.0 size=N/A time=00:07:26.44 bitrate=N/A speed=19.2x    frame=10900 fps=459 q=-0.0 size=N/A time=00:07:34.62 bitrate=N/A speed=19.2x    frame=11141 fps=460 q=-0.0 size=N/A time=00:07:44.67 bitrate=N/A speed=19.2x    frame=11334 fps=458 q=-0.0 size=N/A time=00:07:52.72 bitrate=N/A speed=19.1x    frame=11558 fps=457 q=-0.0 size=N/A time=00:08:02.06 bitrate=N/A speed=19.1x    frame=11798 fps=458 q=-0.0 size=N/A time=00:08:12.07 bitrate=N/A speed=19.1x    frame=12049 fps=458 q=-0.0 size=N/A time=00:08:22.54 bitrate=N/A speed=19.1x    frame=12311 fps=459 q=-0.0 size=N/A time=00:08:33.47 bitrate=N/A speed=19.1x    frame=12596 fps=461 q=-0.0 size=N/A time=00:08:45.35 bitrate=N/A speed=19.2x    frame=12819 fps=460 q=-0.0 size=N/A time=00:08:54.65 bitrate=N/A speed=19.2x    frame=13031 fps=459 q=-0.0 size=N/A time=00:09:03.50 bitrate=N/A speed=19.2x    frame=13254 fps=459 q=-0.0 size=N/A time=00:09:12.80 bitrate=N/A speed=19.1x    frame=13466 fps=458 q=-0.0 size=N/A time=00:09:21.64 bitrate=N/A speed=19.1x    frame=13693 fps=458 q=-0.0 size=N/A time=00:09:31.11 bitrate=N/A speed=19.1x    frame=13937 fps=458 q=-0.0 size=N/A time=00:09:41.28 bitrate=N/A speed=19.1x    frame=14171 fps=458 q=-0.0 size=N/A time=00:09:51.04 bitrate=N/A speed=19.1x    frame=14419 fps=458 q=-0.0 size=N/A time=00:10:01.39 bitrate=N/A speed=19.1x    frame=14675 fps=459 q=-0.0 size=N/A time=00:10:12.06 bitrate=N/A speed=19.1x    frame=14930 fps=459 q=-0.0 size=N/A time=00:10:22.70 bitrate=N/A speed=19.2x    frame=15186 fps=460 q=-0.0 size=N/A time=00:10:33.38 bitrate=N/A speed=19.2x    frame=15452 fps=461 q=-0.0 size=N/A time=00:10:44.47 bitrate=N/A speed=19.2x    frame=15712 fps=462 q=-0.0 size=N/A time=00:10:55.32 bitrate=N/A speed=19.3x    frame=15958 fps=462 q=-0.0 size=N/A time=00:11:05.58 bitrate=N/A speed=19.3x    frame=16189 fps=462 q=-0.0 size=N/A time=00:11:15.21 bitrate=N/A speed=19.3x    frame=16425 fps=462 q=-0.0 size=N/A time=00:11:25.05 bitrate=N/A speed=19.2x    frame=16680 fps=462 q=-0.0 size=N/A time=00:11:35.69 bitrate=N/A speed=19.3x    frame=16908 fps=462 q=-0.0 size=N/A time=00:11:45.20 bitrate=N/A speed=19.3x    frame=17138 fps=462 q=-0.0 size=N/A time=00:11:54.79 bitrate=N/A speed=19.2x    frame=17378 fps=462 q=-0.0 size=N/A time=00:12:04.80 bitrate=N/A speed=19.2x    frame=17630 fps=462 q=-0.0 size=N/A time=00:12:15.31 bitrate=N/A speed=19.3x    frame=17907 fps=463 q=-0.0 size=N/A time=00:12:26.87 bitrate=N/A speed=19.3x    frame=18178 fps=464 q=-0.0 size=N/A time=00:12:38.17 bitrate=N/A speed=19.3x    frame=18436 fps=464 q=-0.0 size=N/A time=00:12:48.93 bitrate=N/A speed=19.4x    frame=18683 fps=464 q=-0.0 size=N/A time=00:12:59.23 bitrate=N/A speed=19.4x    frame=18942 fps=465 q=-0.0 size=N/A time=00:13:10.03 bitrate=N/A speed=19.4x    frame=19194 fps=465 q=-0.0 size=N/A time=00:13:20.54 bitrate=N/A speed=19.4x    frame=19445 fps=465 q=-0.0 size=N/A time=00:13:31.01 bitrate=N/A speed=19.4x    frame=19681 fps=465 q=-0.0 size=N/A time=00:13:40.86 bitrate=N/A speed=19.4x    frame=19895 fps=465 q=-0.0 size=N/A time=00:13:49.78 bitrate=N/A speed=19.4x    frame=20106 fps=464 q=-0.0 size=N/A time=00:13:58.58 bitrate=N/A speed=19.4x    frame=20332 fps=464 q=-0.0 size=N/A time=00:14:08.01 bitrate=N/A speed=19.3x    frame=20574 fps=464 q=-0.0 size=N/A time=00:14:18.10 bitrate=N/A speed=19.3x    frame=20812 fps=464 q=-0.0 size=N/A time=00:14:28.03 bitrate=N/A speed=19.3x    frame=21047 fps=464 q=-0.0 size=N/A time=00:14:37.83 bitrate=N/A speed=19.3x    frame=21293 fps=464 q=-0.0 size=N/A time=00:14:48.09 bitrate=N/A speed=19.4x    frame=21533 fps=464 q=-0.0 size=N/A time=00:14:58.10 bitrate=N/A speed=19.3x    frame=21748 fps=463 q=-0.0 size=N/A time=00:15:07.07 bitrate=N/A speed=19.3x    frame=21998 fps=464 q=-0.0 size=N/A time=00:15:17.49 bitrate=N/A speed=19.3x    frame=22229 fps=463 q=-0.0 size=N/A time=00:15:27.13 bitrate=N/A speed=19.3x    frame=22478 fps=464 q=-0.0 size=N/A time=00:15:37.51 bitrate=N/A speed=19.3x    frame=22729 fps=464 q=-0.0 size=N/A time=00:15:47.98 bitrate=N/A speed=19.3x    frame=22949 fps=463 q=-0.0 size=N/A time=00:15:57.16 bitrate=N/A speed=19.3x    frame=23199 fps=464 q=-0.0 size=N/A time=00:16:07.59 bitrate=N/A speed=19.3x    frame=23443 fps=464 q=-0.0 size=N/A time=00:16:17.76 bitrate=N/A speed=19.3x    frame=23680 fps=464 q=-0.0 size=N/A time=00:16:27.65 bitrate=N/A speed=19.3x    frame=23927 fps=464 q=-0.0 size=N/A time=00:16:37.95 bitrate=N/A speed=19.4x    frame=24167 fps=464 q=-0.0 size=N/A time=00:16:47.96 bitrate=N/A speed=19.3x    frame=24386 fps=464 q=-0.0 size=N/A time=00:16:57.09 bitrate=N/A speed=19.3x    frame=24620 fps=463 q=-0.0 size=N/A time=00:17:06.85 bitrate=N/A speed=19.3x    frame=24886 fps=464 q=-0.0 size=N/A time=00:17:17.95 bitrate=N/A speed=19.4x    frame=25113 fps=464 q=-0.0 size=N/A time=00:17:27.42 bitrate=N/A speed=19.3x    frame=25317 fps=463 q=-0.0 size=N/A time=00:17:35.92 bitrate=N/A speed=19.3x    frame=25564 fps=463 q=-0.0 size=N/A time=00:17:46.23 bitrate=N/A speed=19.3x    frame=25805 fps=463 q=-0.0 size=N/A time=00:17:56.28 bitrate=N/A speed=19.3x    frame=26049 fps=463 q=-0.0 size=N/A time=00:18:06.46 bitrate=N/A speed=19.3x    frame=26287 fps=463 q=-0.0 size=N/A time=00:18:16.38 bitrate=N/A speed=19.3x    frame=26501 fps=463 q=-0.0 size=N/A time=00:18:25.31 bitrate=N/A speed=19.3x    frame=26737 fps=463 q=-0.0 size=N/A time=00:18:35.15 bitrate=N/A speed=19.3x    frame=26937 fps=462 q=-0.0 size=N/A time=00:18:43.49 bitrate=N/A speed=19.3x    frame=27176 fps=462 q=-0.0 size=N/A time=00:18:53.46 bitrate=N/A speed=19.3x    frame=27416 fps=462 q=-0.0 size=N/A time=00:19:03.47 bitrate=N/A speed=19.3x    frame=27664 fps=462 q=-0.0 size=N/A time=00:19:13.81 bitrate=N/A speed=19.3x    frame=27896 fps=462 q=-0.0 size=N/A time=00:19:23.49 bitrate=N/A speed=19.3x    frame=28106 fps=462 q=-0.0 size=N/A time=00:19:32.25 bitrate=N/A speed=19.3x    frame=28304 fps=461 q=-0.0 size=N/A time=00:19:40.51 bitrate=N/A speed=19.2x    frame=28561 fps=462 q=-0.0 size=N/A time=00:19:51.23 bitrate=N/A speed=19.3x    frame=28798 fps=462 q=-0.0 size=N/A time=00:20:01.11 bitrate=N/A speed=19.2x    frame=29040 fps=462 q=-0.0 size=N/A time=00:20:11.21 bitrate=N/A speed=19.3x    frame=29311 fps=462 q=-0.0 size=N/A time=00:20:22.51 bitrate=N/A speed=19.3x    frame=29553 fps=462 q=-0.0 size=N/A time=00:20:32.60 bitrate=N/A speed=19.3x    frame=29772 fps=462 q=-0.0 size=N/A time=00:20:41.74 bitrate=N/A speed=19.3x    frame=30005 fps=462 q=-0.0 size=N/A time=00:20:51.45 bitrate=N/A speed=19.3x    frame=30241 fps=462 q=-0.0 size=N/A time=00:21:01.30 bitrate=N/A speed=19.3x    frame=30466 fps=462 q=-0.0 size=N/A time=00:21:10.68 bitrate=N/A speed=19.3x    frame=30716 fps=462 q=-0.0 size=N/A time=00:21:21.11 bitrate=N/A speed=19.3x    frame=30922 fps=461 q=-0.0 size=N/A time=00:21:29.70 bitrate=N/A speed=19.2x    frame=31135 fps=461 q=-0.0 size=N/A time=00:21:38.58 bitrate=N/A speed=19.2x    frame=31349 fps=461 q=-0.0 size=N/A time=00:21:47.51 bitrate=N/A speed=19.2x    frame=31556 fps=460 q=-0.0 size=N/A time=00:21:56.14 bitrate=N/A speed=19.2x    frame=31802 fps=460 q=-0.0 size=N/A time=00:22:06.40 bitrate=N/A speed=19.2x    frame=32011 fps=460 q=-0.0 size=N/A time=00:22:15.12 bitrate=N/A speed=19.2x    frame=32166 fps=459 q=-0.0 size=N/A time=00:22:21.59 bitrate=N/A speed=19.1x    frame=32305 fps=457 q=-0.0 size=N/A time=00:22:27.38 bitrate=N/A speed=19.1x    frame=32527 fps=457 q=-0.0 size=N/A time=00:22:36.64 bitrate=N/A speed=19.1x    frame=32694 fps=456 q=-0.0 size=N/A time=00:22:43.61 bitrate=N/A speed=  19x    frame=32857 fps=455 q=-0.0 size=N/A time=00:22:50.41 bitrate=N/A speed=  19x    frame=33035 fps=454 q=-0.0 size=N/A time=00:22:57.83 bitrate=N/A speed=18.9x    frame=33189 fps=453 q=-0.0 size=N/A time=00:23:04.25 bitrate=N/A speed=18.9x    frame=33365 fps=452 q=-0.0 size=N/A time=00:23:11.59 bitrate=N/A speed=18.9x    frame=33552 fps=452 q=-0.0 size=N/A time=00:23:19.39 bitrate=N/A speed=18.8x    frame=33735 fps=451 q=-0.0 size=N/A time=00:23:27.03 bitrate=N/A speed=18.8x    frame=33917 fps=450 q=-0.0 size=N/A time=00:23:34.62 bitrate=N/A speed=18.8x    frame=34111 fps=450 q=-0.0 size=N/A time=00:23:42.71 bitrate=N/A speed=18.8x    [Parsed_ssim_10 @ 00000170f9a255c0] SSIM Y:0.993884 (22.135397) U:0.994435 (22.545699) V:0.994822 (22.858020) All:0.994132 (22.315275)
[out#0/null @ 00000170ecdbf080] video:14697KiB audio:267700KiB subtitle:0KiB other streams:0KiB global headers:0KiB muxing overhead: unknown
frame=34203 fps=450 q=-0.0 Lsize=N/A time=00:23:46.55 bitrate=N/A speed=18.8x    
